# xmcd
#
# Track frame offsets:
#	150
#	17072
#	31322
#	48368
#	65736
#	81360
#	93946
#	109096
#	124095
#	143907
#	159412
#
# Disc length: 2324 seconds
#
# Revision: 624242977
# Processed by: cddbd v1.5.2PL0 Copyright (c) Steve Scherf et al.
# Submitted via: EZCDAudioConverter 8.0.1.1
#
DISCID=8e09120b
DTITLE=Abigail Dowd - Don't Wake Me
DYEAR=2016
DGENRE=Country
TTITLE0=Wanderers
TTITLE1=Never That Far
TTITLE2=Isle On The Water
TTITLE3=Some Divine
TTITLE4=Don't Wake Me
TTITLE5=Dare The Devil
TTITLE6=Goodbye Yesterday
TTITLE7=Leaving
TTITLE8=Mockingbird
TTITLE9=Would You Let Me Go
TTITLE10=Where Were You
EXTD=
EXTT0=
EXTT1=
EXTT2=
EXTT3=
EXTT4=
EXTT5=
EXTT6=
EXTT7=
EXTT8=
EXTT9=
EXTT10=
PLAYORDER=
